<svg width="88" height="56" viewBox="0 0 88 56" fill="none" xmlns="http://www.w3.org/2000/svg">
<g id="delivery" clip-path="url(#clip0_656_2250)">
<path id="Vector" d="M21.8767 38.7512H8.54004V43.4528C8.54004 45.6655 10.3281 47.4612 12.5357 47.4612H17.1882C17.1882 43.8184 19.0541 40.6136 21.8786 38.7512H21.8767Z" fill="#9999FF"/>
<path id="Vector_2" d="M86.9824 28.5009L80.5362 17.104C79.1486 14.6513 76.5557 13.1375 73.7444 13.1375H61.689V32.9682C61.689 36.1616 59.1075 38.7514 55.9242 38.7514H33.2637C36.0882 40.6138 37.9541 43.8186 37.9541 47.4614H59.5517C59.5517 41.7087 64.2003 37.0433 69.9367 37.0433C75.673 37.0433 80.3217 41.7068 80.3217 47.4614H84.006C86.2117 47.4614 88.0017 45.6676 88.0017 43.453V32.3665C88.0017 31.0107 87.6506 29.6796 86.9843 28.499L86.9824 28.5009ZM66.7363 27.465V18.2675H73.8526C74.8492 18.2675 75.7698 18.854 76.2747 19.808L80.3198 27.4631H66.7363V27.465Z" fill="#9999FF"/>
<path id="Vector_3" d="M27.5714 39.1875C23.0177 39.1875 19.3257 42.8912 19.3257 47.4595C19.3257 52.0278 23.0177 55.7316 27.5714 55.7316C32.1252 55.7316 35.8171 52.0278 35.8171 47.4595C35.8171 42.8912 32.1252 39.1875 27.5714 39.1875ZM27.5714 51.129C25.5536 51.129 23.9136 49.4837 23.9136 47.4595C23.9136 45.4353 25.5536 43.7901 27.5714 43.7901C29.5892 43.7901 31.2292 45.4353 31.2292 47.4595C31.2292 49.4837 29.5892 51.129 27.5714 51.129Z" fill="#9999FF"/>
<path id="Vector_4" d="M69.9366 39.1875C65.3829 39.1875 61.6909 42.8912 61.6909 47.4595C61.6909 52.0278 65.3829 55.7316 69.9366 55.7316C74.4904 55.7316 78.1824 52.0278 78.1824 47.4595C78.1824 42.8912 74.4904 39.1875 69.9366 39.1875ZM69.9366 51.129C67.9189 51.129 66.2788 49.4837 66.2788 47.4595C66.2788 45.4353 67.9189 43.7901 69.9366 43.7901C71.9544 43.7901 73.5945 45.4353 73.5945 47.4595C73.5945 49.4837 71.9544 51.129 69.9366 51.129Z" fill="#9999FF"/>
<path id="Vector_5" d="M55.3683 0H4.18361C1.87306 0 0 1.87904 0 4.19695V32.3378C0 34.6557 1.87306 36.5348 4.18361 36.5348H55.3683C57.6788 36.5348 59.5519 34.6557 59.5519 32.3378V4.19695C59.5519 1.87904 57.6788 0 55.3683 0Z" fill="#9999FF"/>
</g>
<defs>
<clipPath id="clip0_656_2250">
<rect width="88" height="55.7333" fill="white"/>
</clipPath>
</defs>
</svg>
