<svg width="89" height="56" viewBox="0 0 89 56" fill="none" xmlns="http://www.w3.org/2000/svg">
<g id="delivery" clip-path="url(#clip0_656_2083)">
<path id="Vector" d="M43.6894 17.2891L50.1438 14.0298C50.1438 14.0298 51.9347 13.4699 52.6441 15.6595L52.8127 16.0662L70.2824 4.15023C70.2824 4.15023 77.9869 -2.92831 83.7306 1.40073C83.7306 1.40073 87.4811 1.65563 87.9544 3.64186C87.9544 3.64186 89.036 6.11069 87.5485 8.64395C86.0623 11.1772 83.291 14.4365 78.6275 17.746C73.9641 21.0554 66.0114 26.1477 66.0114 26.1477C66.0114 26.1477 64.706 28.3373 63.828 29.407L65.6527 34.296L71.7686 31.8014C71.7686 31.8014 73.6606 31.3431 74.3363 34.296C75.0119 37.2488 73.7618 39.4384 73.7618 39.4384C73.7618 39.4384 71.3963 41.7812 68.9635 43.0543C68.9635 43.0543 72.3431 51.0493 72.2406 51.0493C72.1381 51.0493 69.1995 55.3268 69.1995 55.3268C69.1995 55.3268 69.2669 53.2389 69.2332 53.0857C69.1995 52.9325 66.01 49.2665 66.01 49.2665L64.536 50.6928L57.2711 42.3426L50.0737 39.3382C50.0737 39.3382 47.9456 41.986 42.3691 41.8843C42.3691 41.8843 29.664 49.7763 23.8192 49.7763L25.7787 54.207L23.8192 55.735L18.1429 50.7443C18.1429 50.7443 9.76276 53.0871 10.0338 50.2345C10.3049 47.3819 12.3318 46.4668 12.3318 46.4668L0.333374 39.1334L2.73657 37.5037L14.6986 42.0862L12.6043 25.2828L16.1187 23.3481C16.1187 23.3481 23.1462 36.8923 24.4989 35.8741L36.3247 27.2174L33.8244 24.6713C33.8244 24.6713 14.9009 12.6551 14.9683 12.3501C15.0358 12.045 15.5766 11.1285 15.5766 11.1285L4.69608 3.08193L10.7783 2.57213L43.6894 17.2877V17.2891Z" fill="#9999FF"/>
</g>
<defs>
<clipPath id="clip0_656_2083">
<rect width="88" height="55.7333" fill="white" transform="translate(0.333374)"/>
</clipPath>
</defs>
</svg>
