<svg width="57" height="45" viewBox="0 0 57 45" fill="none" xmlns="http://www.w3.org/2000/svg">
<g id="RASTREIO" clip-path="url(#clip0_772_382)">
<path id="Vector" d="M15.7992 25.9107C8.94508 26.574 3.04545 21.1613 3.04545 14.3157C3.04545 7.89472 8.25568 2.68096 14.6723 2.68096C21.447 2.68096 26.803 8.46518 26.2727 15.2444H28.6458C28.8447 15.2444 28.8447 15.4036 28.8447 14.329C28.858 6.48846 22.5076 0.133789 14.6723 0.133789C6.83712 0.133789 0.5 6.48846 0.5 14.3157C0.5 22.5542 7.5 29.1079 15.7992 28.4579V25.9107Z" fill="white"/>
<path id="Vector_2" d="M14.6725 6.0108C15.3752 6.0108 15.2028 5.2546 15.2028 3.50342C15.2028 2.80029 14.1422 2.80029 14.1422 3.50342C14.1422 5.2546 13.9699 6.0108 14.6725 6.0108Z" fill="white"/>
<path id="Vector_3" d="M5.8426 13.7853C4.0926 13.7853 3.33691 13.6128 3.33691 14.3159C3.33691 15.0191 4.0926 14.8466 5.8426 14.8466C6.54525 14.8466 6.54525 13.7853 5.8426 13.7853Z" fill="white"/>
<path id="Vector_4" d="M14.6725 22.6338C13.9699 22.6338 14.1422 23.39 14.1422 25.1412C14.1422 25.8443 15.2028 25.8443 15.2028 25.1412C15.2028 23.39 15.3752 22.6338 14.6725 22.6338Z" fill="white"/>
<path id="Vector_5" d="M25.4774 13.7853C23.7274 13.7853 22.9717 13.6128 22.9717 14.3159C22.9717 15.0191 23.7274 14.8466 25.4774 14.8466C26.18 14.8466 26.18 13.7853 25.4774 13.7853Z" fill="white"/>
<path id="Vector_6" d="M21.2877 6.67431C14.1154 14.077 15.6665 12.7637 14.6855 12.7637C13.9828 12.7637 14.8445 13.4004 11.3843 10.1236C10.6419 9.42048 9.56803 10.5481 10.3105 11.2513C13.6911 14.4485 13.1211 13.7586 13.1211 14.3026C13.1211 16.3589 16.2233 16.3589 16.2233 14.3026C16.2233 13.2014 14.818 14.9659 22.0964 7.45703C22.6135 6.9131 21.8048 6.13038 21.2745 6.66104L21.2877 6.67431Z" fill="white"/>
<path id="Vector_7" d="M41.2406 17.4336C41.2406 17.0489 40.9224 16.7305 40.538 16.7305H17.9868C17.6024 16.7305 17.2842 17.0489 17.2842 17.4336V33.5392H41.2406V17.4336Z" fill="white"/>
<path id="Vector_8" d="M17.284 35.0379V38.0096C17.284 39.3893 18.3976 40.5037 19.7764 40.5037H21.1685C21.1685 42.8519 23.0776 44.7623 25.4242 44.7623C27.7707 44.7623 29.6798 42.8519 29.6798 40.5037H44.0908C44.0908 42.8519 45.9999 44.7623 48.3465 44.7623C50.6931 44.7623 52.6022 42.8519 52.6022 40.5037H53.9942C55.373 40.5037 56.4867 39.3893 56.4867 38.0096V34.5868C13.4791 34.5868 17.2973 34.348 17.2973 35.0379H17.284ZM48.3332 38.9383C50.3882 38.9383 50.3882 42.0559 48.3332 42.0559C46.2783 42.0559 46.2783 38.9383 48.3332 38.9383ZM25.4242 42.0559C23.3692 42.0559 23.3692 38.9383 25.4242 38.9383C27.4791 38.9383 27.4791 42.0559 25.4242 42.0559Z" fill="white"/>
<path id="Vector_9" d="M42.2744 33.539H56.4733C56.4733 28.8559 56.6456 28.3916 55.943 27.463C50.229 19.9674 50.1759 19.3306 48.4524 19.3306H42.2744V33.539ZM44.9127 20.3654C48.4524 20.3654 49.0623 20.1664 49.6987 20.9889L54.8824 27.7814H44.9127V20.3654Z" fill="white"/>
</g>
<defs>
<clipPath id="clip0_772_382">
<rect width="56" height="44.6154" fill="white" transform="translate(0.5 0.133789)"/>
</clipPath>
</defs>
</svg>
