<svg width="57" height="48" viewBox="0 0 57 48" fill="none" xmlns="http://www.w3.org/2000/svg">
<g id="RASTREIO" clip-path="url(#clip0_772_563)">
<path id="Vector" d="M37.676 34.7647L55.9505 26.0582L48.9071 12.6064L30.6326 21.3129L37.676 34.7647ZM43.8761 13.1674L38.1861 2.30119L24.1773 8.97641L29.8673 19.8426L43.8761 13.1674ZM10.0267 0.249622C9.62635 0.242863 9.29332 0.54705 9.28623 0.928973V1.01685L1.59092 0.868136C1.01697 0.854616 0.542209 1.29062 0.528037 1.84153L0.499693 3.19348C0.489065 3.74101 0.946106 4.19729 1.52007 4.20743L9.21183 4.35953V4.46092C9.2012 4.84285 9.52007 5.16055 9.92042 5.16731C10.3208 5.17407 10.6538 4.86989 10.6609 4.48796L10.7388 0.956012C10.7459 0.574088 10.4271 0.256382 10.0267 0.249622ZM56.3686 28.5796C56.0604 27.9881 55.3057 27.7481 54.6892 28.0456L36.7442 36.5966L21.676 7.82388C19.5714 3.80861 15.7486 2.20656 11.4049 1.69958V4.1297C15.5821 4.67047 18.0373 6.22183 19.4333 8.88853L25.6512 20.7653L28.4324 36.769C26.0373 38.4183 25.1693 41.521 26.5334 44.1269C28.0497 47.0201 31.7344 48.1929 34.7672 46.7497C37.8 45.3031 39.0294 41.7881 37.5165 38.8949L55.8017 30.1816C56.4218 29.8876 56.6733 29.1677 56.3615 28.5796H56.3686ZM33.5484 35.8429C32.6627 35.6266 31.7273 35.5995 30.8026 35.7787L29.4563 28.0287L33.5484 35.8429ZM33.0205 43.4002C31.9257 43.9207 30.5971 43.4983 30.0515 42.4539C29.5059 41.4095 29.9488 40.1421 31.0435 39.6216C32.1383 39.1011 33.4669 39.5236 34.0125 40.5679C34.5582 41.6123 34.1153 42.8797 33.0205 43.4002Z" fill="white"/>
</g>
<defs>
<clipPath id="clip0_772_563">
<rect width="56" height="47.122" fill="white" transform="translate(0.5 0.25)"/>
</clipPath>
</defs>
</svg>
