<svg width="56" height="29" viewBox="0 0 56 29" fill="none" xmlns="http://www.w3.org/2000/svg">
<g id="RASTREIO" clip-path="url(#clip0_772_1240)">
<path id="Vector" d="M9.14249 15.1056C9.14249 14.7537 8.85257 14.4678 8.49591 14.4678H0.646579C0.289918 14.4678 0 14.7537 0 15.1056C0 15.4574 0.289918 15.7434 0.646579 15.7434H8.49591C8.85257 15.7434 9.14249 15.4574 9.14249 15.1056Z" fill="white"/>
<path id="Vector_2" d="M10.8421 6.75977H3.41342C3.09664 6.75977 2.83984 7.01307 2.83984 7.32555V7.46956C2.83984 7.78203 3.09664 8.03534 3.41342 8.03534H10.8421C11.1589 8.03534 11.4157 7.78203 11.4157 7.46956V7.32555C11.4157 7.01307 11.1589 6.75977 10.8421 6.75977Z" fill="white"/>
<path id="Vector_3" d="M12.5922 10.6143H4.89511C4.53845 10.6143 4.24854 10.9002 4.24854 11.252C4.24854 11.6039 4.53845 11.8898 4.89511 11.8898H12.5922C12.9488 11.8898 13.2388 11.6039 13.2388 11.252C13.2388 10.9002 12.9488 10.6143 12.5922 10.6143Z" fill="white"/>
<path id="Vector_4" d="M11.942 18.3218H3.48642C3.12976 18.3218 2.83984 18.6078 2.83984 18.9596C2.83984 19.3114 3.12976 19.5974 3.48642 19.5974H11.942C12.2987 19.5974 12.5886 19.3114 12.5886 18.9596C12.5886 18.6078 12.2987 18.3218 11.942 18.3218Z" fill="white"/>
<path id="Vector_5" d="M47.5082 21.1313C46.9054 21.1313 46.3026 21.2616 45.7165 21.5195C44.9518 21.8562 44.342 22.457 44.0007 23.212C43.279 24.8086 43.5647 26.5244 44.7467 27.6896C45.9286 28.8548 47.6681 29.1373 49.2866 28.4255C50.0514 28.0887 50.6611 27.488 51.0025 26.7329C51.7242 25.1364 51.4384 23.4205 50.2565 22.2554C49.5216 21.5305 48.5455 21.1313 47.5082 21.1313ZM48.7659 25.8174C48.6678 25.984 48.5267 26.1232 48.3571 26.2206C48.0776 26.3804 47.7821 26.4593 47.4957 26.4593C47.1035 26.4593 46.7281 26.3118 46.4361 26.0238C45.9307 25.5252 45.8521 24.7811 46.2366 24.129C46.3346 23.9623 46.4764 23.8231 46.6454 23.7264C47.3073 23.3471 48.0609 23.4246 48.5663 23.9232C49.0718 24.4218 49.1504 25.1659 48.7659 25.8181V25.8174Z" fill="white"/>
<path id="Vector_6" d="M53.9554 16.6682L53.0105 16.6366L49.966 11.1461C49.5412 10.3808 48.5672 9.8692 47.4645 9.83216L42.5554 9.66895L41.9366 24.7043C41.9158 25.041 42.4449 25.3016 42.8822 25.3147C42.8252 24.5281 42.9698 23.7085 43.3285 22.9151C43.7436 21.9961 44.4854 21.2644 45.417 20.8549C47.3206 20.0176 49.3751 20.3571 50.7774 21.7403C51.7389 22.6888 52.2026 23.939 52.1262 25.2358L54.7563 25.2132C55.1644 25.2084 55.4995 24.9567 55.5238 24.6371L55.998 18.3497C56.0536 17.4596 55.1394 16.7066 53.9561 16.6668L53.9554 16.6682ZM44.24 15.8726L44.4138 11.6447L47.3992 11.7442C47.9276 11.762 48.223 11.9883 48.2655 12.0644L50.4548 16.0125L44.24 15.8726Z" fill="white"/>
<path id="Vector_7" d="M24.0973 21.1313C23.4945 21.1313 22.8917 21.2616 22.3056 21.5195C21.5409 21.8562 20.9311 22.457 20.5898 23.212C19.8681 24.8086 20.1539 26.5244 21.3358 27.6896C22.5177 28.8548 24.2565 29.1373 25.8757 28.4255C26.6405 28.0887 27.2502 27.488 27.5916 26.7329C28.3133 25.1364 28.0275 23.4205 26.8456 22.2554C26.1107 21.5305 25.1346 21.1313 24.0973 21.1313ZM25.355 25.8174C25.257 25.984 25.1158 26.1232 24.9462 26.2206C24.6667 26.3804 24.3712 26.4593 24.0848 26.4593C23.6927 26.4593 23.3172 26.3118 23.0252 26.0238C22.5198 25.5252 22.4412 24.7811 22.8257 24.1283C22.9237 23.9616 23.0649 23.8224 23.2345 23.7257C23.8957 23.3465 24.65 23.424 25.1555 23.9225C25.6609 24.4211 25.7395 25.1652 25.355 25.8174Z" fill="white"/>
<path id="Vector_8" d="M41.2831 0.133987H17.3527C16.8403 0.133987 16.4183 0.530376 16.3939 1.03512L15.2614 24.226C15.235 24.7664 15.6723 25.2183 16.2201 25.2183H19.4607C19.4607 25.2183 19.4649 25.2162 19.4649 25.2142C19.4266 24.4584 19.5747 23.6753 19.9182 22.9161C20.3332 21.9971 21.075 21.2654 22.0067 20.856C23.9103 20.0186 25.9647 20.3581 27.367 21.7413C28.3237 22.685 28.7874 23.9276 28.7165 25.2183H40.3855C40.9014 25.2183 41.3255 24.8157 41.3449 24.3076L42.2432 1.11673C42.2641 0.579753 41.8281 0.133301 41.2838 0.133301L41.2831 0.133987Z" fill="white"/>
</g>
<defs>
<clipPath id="clip0_772_1240">
<rect width="56" height="28.6792" fill="white" transform="translate(0 0.133789)"/>
</clipPath>
</defs>
</svg>
