<svg width="56" height="55" viewBox="0 0 56 55" fill="none" xmlns="http://www.w3.org/2000/svg">
<g id="RASTREIO" clip-path="url(#clip0_772_122)">
<path id="Vector" d="M19.4977 41.8156L6.41895 36.758V46.694C6.41895 47.44 6.89697 48.1037 7.61771 48.3486L26.5215 54.6888V35.4702L21.1386 41.4259C20.725 41.8802 20.076 42.0375 19.4977 41.8167V41.8156Z" fill="white"/>
<path id="Vector_2" d="M55.8103 30.0041L49.3183 21.9218C49.1052 21.5779 48.7812 21.3039 48.3802 21.1695L36.5055 17.1841L34.2093 20.1098L42.3073 22.8251L28.0013 27.6274L13.6889 22.8251L21.7922 20.1036L19.4907 17.1841L7.61593 21.1695C7.21494 21.3039 6.88992 21.5769 6.67782 21.9218L0.190142 30.0041C-0.176029 30.4646 0.00758422 31.1461 0.56159 31.3617L19.0464 38.5126C19.3946 38.647 19.784 38.5532 20.032 38.2792L26.8964 30.6803C27.4567 30.0624 28.5373 30.0624 29.0977 30.6803L35.9673 38.2792C36.2153 38.5532 36.6047 38.6459 36.9529 38.5126L55.4377 31.3617C55.9918 31.1461 56.1754 30.4646 55.8092 30.0041H55.8103Z" fill="white"/>
<path id="Vector_3" d="M35.9641 41.9147C35.5504 41.9147 35.1494 41.7459 34.8603 41.425L29.4722 35.4692V54.6878L48.3822 48.3476C49.0966 48.1027 49.581 47.438 49.581 46.693V36.7571L36.5022 41.8146C36.325 41.8792 36.1424 41.9136 35.9651 41.9136L35.9641 41.9147Z" fill="white"/>
<path id="Vector_4" d="M27.2023 22.2385C27.6064 22.7522 28.3926 22.7522 28.7957 22.2385L35.7308 13.4195C36.2457 12.7652 35.773 11.8118 34.9341 11.8118H31.2629V1.07674C31.2629 0.555774 30.8355 0.133789 30.3089 0.133789H25.6901C25.1635 0.133789 24.7361 0.555774 24.7361 1.07674V11.8129H21.0649C20.226 11.8129 19.7532 12.7652 20.2682 13.4206L27.2033 22.2396L27.2023 22.2385Z" fill="white"/>
</g>
<defs>
<clipPath id="clip0_772_122">
<rect width="56" height="54.5548" fill="white" transform="translate(0 0.133789)"/>
</clipPath>
</defs>
</svg>
